<?xml version="1.0" standalone="no"?>
<!DOCTYPE svg PUBLIC "-//W3C//DTD SVG 20010904//EN"
 "http://www.w3.org/TR/2001/REC-SVG-20010904/DTD/svg10.dtd">
<svg version="1.0" xmlns="http://www.w3.org/2000/svg"
 width="2107.000000pt" height="1983.000000pt" viewBox="0 0 2107.000000 1983.000000"
 preserveAspectRatio="xMidYMid meet">

<g transform="translate(0.000000,1983.000000) scale(0.100000,-0.100000)"
fill="#000000" stroke="none">
<path d="M5725 19480 c-956 -83 -1776 -418 -2450 -1001 -147 -127 -405 -395
-526 -547 -589 -735 -946 -1641 -1044 -2647 -33 -341 -30 -788 9 -1125 l14
-115 -75 -165 c-102 -226 -226 -518 -312 -740 l-73 -185 -68 -32 c-211 -100
-289 -346 -175 -551 l25 -44 -54 -171 c-186 -592 -349 -1233 -463 -1828 l-28
-146 -49 -29 c-61 -36 -118 -101 -152 -171 -63 -128 -29 -339 69 -431 l23 -22
-32 -252 c-39 -306 -63 -557 -71 -735 -3 -73 -10 -133 -14 -133 -21 0 -120
-107 -150 -162 -33 -61 -34 -67 -34 -173 0 -105 2 -114 33 -178 20 -41 55 -89
88 -121 l54 -53 0 -145 c0 -827 135 -1611 371 -2155 l49 -112 -26 -78 c-22
-66 -26 -90 -21 -155 13 -202 169 -363 362 -376 l74 -5 143 -142 c137 -136
294 -262 438 -352 513 -319 1179 -377 1868 -161 129 41 133 41 167 25 146 -70
339 -26 458 103 52 55 96 141 98 188 0 10 45 48 112 94 175 120 318 240 496
413 216 212 413 439 591 681 44 61 46 62 102 68 126 15 261 114 316 234 21 46
26 73 26 137 1 44 -2 100 -7 125 l-7 45 109 150 c61 82 155 206 210 276 l100
126 71 5 c190 14 343 170 359 365 l6 77 85 69 c47 38 130 100 184 138 l99 69
81 -78 c265 -253 612 -423 978 -478 137 -21 393 -24 527 -5 763 106 1382 683
1542 1436 10 50 19 100 19 111 0 30 22 32 426 40 l342 7 6 -29 c3 -16 10 -57
16 -91 42 -242 160 -517 317 -736 70 -96 227 -264 320 -340 553 -450 1319
-541 1958 -232 232 112 460 290 618 484 l27 33 38 -28 c91 -70 247 -211 342
-311 195 -204 378 -442 805 -1048 312 -441 425 -596 582 -793 519 -652 985
-1028 1545 -1247 336 -131 644 -189 998 -188 279 1 510 39 765 124 121 41 370
164 475 234 363 244 642 587 820 1010 160 378 273 954 310 1572 31 530 -10
1297 -111 2038 -319 2354 -959 4462 -1877 6182 -277 519 -551 897 -932 1287
-1243 1271 -2883 1677 -4500 1113 -102 -36 -261 -94 -355 -130 -93 -35 -246
-90 -340 -121 -865 -289 -1554 -375 -2481 -310 l-91 7 -17 -51 -17 -51 -70
140 c-589 1193 -1677 2066 -2969 2383 -165 41 -380 80 -560 102 -156 19 -750
28 -915 14z m231 -2141 c52 -173 99 -318 103 -322 4 -4 59 2 122 13 72 14 174
24 279 27 197 6 315 -13 438 -72 214 -101 356 -314 392 -586 22 -167 -28 -332
-144 -470 l-55 -66 127 -6 c218 -9 346 -59 472 -186 63 -63 85 -95 128 -181
108 -220 144 -476 96 -687 -42 -189 -188 -379 -393 -514 -96 -63 -294 -164
-433 -220 -65 -26 -108 -49 -108 -57 0 -8 43 -155 96 -328 53 -173 95 -316 93
-318 -14 -11 -375 -114 -380 -108 -4 4 -49 146 -100 316 -52 169 -99 310 -106
313 -11 4 -290 -73 -312 -86 -7 -5 22 -115 84 -316 52 -171 96 -316 97 -324 2
-11 -49 -30 -187 -73 -104 -32 -190 -58 -191 -58 0 0 -45 146 -100 325 -84
277 -101 325 -118 325 -10 0 -190 -52 -398 -116 -209 -63 -382 -113 -384 -111
-8 8 -66 457 -61 470 3 7 70 32 150 56 80 24 159 52 176 62 38 23 64 73 65
124 0 39 -530 1788 -560 1846 -18 36 -66 75 -110 89 -58 19 -155 6 -309 -44
-77 -25 -140 -44 -141 -43 -5 7 -125 409 -122 411 1 2 134 42 293 90 490 148
495 149 495 167 0 9 -43 155 -95 325 -52 169 -91 311 -87 315 6 6 345 110 366
113 6 0 53 -141 107 -314 84 -274 99 -315 115 -312 11 2 83 24 162 49 107 34
142 49 142 62 0 9 -43 152 -94 318 l-93 303 81 24 c45 14 131 41 191 59 61 19
111 33 112 32 2 -1 46 -143 99 -316z m9453 -74 c1106 -156 2084 -781 2801
-1790 180 -254 298 -459 521 -905 808 -1620 1351 -3455 1653 -5595 66 -467 74
-541 111 -1050 65 -886 -4 -1675 -197 -2263 -263 -802 -896 -1273 -1713 -1275
-355 0 -687 80 -1026 250 -265 132 -458 274 -707 517 -326 320 -484 521 -1177
1501 -176 248 -346 476 -475 635 -119 147 -403 430 -545 545 -60 49 -116 94
-123 100 -11 10 -8 29 21 106 83 220 112 392 111 649 -1 269 -36 452 -131 684
-209 512 -635 900 -1165 1060 -193 58 -286 70 -533 71 -191 0 -235 -3 -335
-23 -578 -117 -1053 -479 -1305 -996 -65 -132 -127 -316 -150 -441 -9 -49 -18
-99 -21 -111 -4 -21 -8 -21 -361 -27 -197 -3 -368 -9 -380 -12 -19 -6 -22 -2
-28 32 -56 347 -171 620 -366 873 -296 384 -728 632 -1206 695 -518 68 -1028
-81 -1431 -419 -98 -83 -226 -221 -295 -319 l-41 -59 -71 6 c-38 3 -389 24
-780 46 -390 23 -725 43 -742 46 -26 4 -33 10 -33 27 0 35 -54 138 -98 188
l-42 47 337 698 c184 385 337 700 338 702 2 2 54 -71 116 -162 63 -91 119
-165 126 -163 7 1 382 451 833 1000 452 548 825 997 828 997 4 0 297 -248 651
-550 355 -303 649 -550 654 -550 5 0 6 12 3 28 -10 46 -426 2804 -426 2821 0
15 51 15 642 -1 354 -10 692 -17 752 -15 l109 2 223 735 c124 404 233 764 244
800 l19 65 328 1 c354 1 568 16 871 59 478 69 1011 214 1552 420 570 218 858
291 1335 339 101 10 615 -3 724 -19z m-10489 -4491 c432 -624 786 -1143 787
-1152 2 -9 -157 -348 -352 -752 l-354 -735 -92 0 -92 0 -674 1509 c-371 830
-672 1513 -671 1518 4 12 651 747 658 747 3 0 358 -510 790 -1135z m-2801 -14
c105 -333 191 -612 191 -619 0 -8 -86 -299 -191 -645 -106 -347 -194 -639
-196 -648 -3 -10 -15 -18 -27 -18 -20 0 -32 45 -189 678 -92 372 -167 682
-167 688 0 6 12 16 27 23 114 52 203 201 203 342 0 61 -29 171 -54 204 -9 11
-16 27 -16 37 0 12 135 359 217 556 3 7 7 12 8 10 1 -2 89 -275 194 -608z
m1886 -1220 c346 -773 635 -1422 643 -1443 l15 -37 -37 -36 c-29 -28 -69 -81
-92 -122 -1 -2 -2027 419 -2130 443 -20 4 -22 13 -26 97 -3 63 -12 112 -27
151 -31 79 -114 167 -196 208 -60 29 -63 32 -54 57 4 15 85 281 179 590 l170
564 377 426 c207 235 408 462 447 505 l70 79 17 -39 c9 -21 299 -670 644
-1443z m-2434 -174 l152 -615 -36 -40 c-79 -88 -116 -205 -99 -314 6 -34 13
-69 16 -77 4 -11 -25 -31 -112 -76 -64 -34 -196 -102 -292 -152 l-176 -91 -38
51 -38 52 32 160 c73 373 186 852 281 1196 49 175 151 520 155 520 1 0 71
-276 155 -614z m1884 -1412 c572 -119 1041 -217 1042 -218 1 -1 9 -35 17 -76
9 -44 29 -95 46 -124 17 -27 30 -54 28 -61 -2 -6 -466 -610 -1031 -1342
l-1028 -1330 -57 23 c-31 13 -64 24 -72 24 -13 0 -45 263 -193 1583 -98 870
-178 1589 -177 1598 0 11 12 18 38 23 56 9 152 60 195 104 l38 39 57 -13 c31
-7 525 -110 1097 -230z m-1717 175 c20 -18 55 -40 79 -51 25 -11 43 -26 43
-35 0 -20 348 -3114 356 -3165 4 -29 2 -38 -9 -38 -8 0 -40 -13 -71 -29 l-57
-28 -407 360 c-224 198 -503 445 -620 549 l-212 189 14 27 c62 119 27 316 -75
427 l-42 46 6 132 c3 73 13 209 22 302 15 162 73 637 78 640 139 83 211 188
224 326 l5 55 312 162 c171 89 313 162 315 162 2 0 19 -14 39 -31z m6902 -84
c140 -21 260 -59 395 -124 156 -76 272 -160 393 -286 189 -195 305 -414 364
-685 31 -139 30 -395 0 -538 -89 -414 -353 -762 -720 -950 -401 -206 -849
-210 -1246 -11 -263 132 -490 359 -622 622 -118 232 -168 539 -130 793 40 274
157 528 332 725 315 353 779 524 1234 454z m4400 0 c430 -65 820 -342 1018
-724 258 -495 200 -1069 -152 -1507 -161 -200 -384 -354 -638 -439 -419 -140
-867 -70 -1238 193 -36 25 -110 91 -166 146 -194 195 -322 434 -380 711 -29
137 -26 395 5 534 126 573 574 997 1146 1086 110 18 291 18 405 0z m-6975
-460 c413 -25 751 -45 752 -45 1 0 -16 -39 -39 -87 -229 -496 -223 -1097 16
-1571 20 -39 36 -75 36 -80 0 -4 -44 -39 -97 -77 -54 -38 -142 -104 -196 -148
l-97 -78 -119 -2 -118 -2 -520 967 -520 968 39 42 c22 24 51 69 66 100 14 32
31 58 37 58 5 0 348 -20 760 -45z m-1277 -231 c40 -12 80 -15 142 -12 l86 5
522 -970 522 -970 -36 -43 c-74 -92 -112 -234 -86 -328 10 -33 9 -43 -6 -61
-9 -12 -66 -85 -126 -161 -60 -76 -152 -199 -204 -271 -80 -111 -100 -133
-122 -133 -89 -1 -211 -61 -284 -141 l-51 -56 -1210 130 c-665 72 -1212 131
-1214 133 -2 2 -7 24 -12 50 -5 26 -20 72 -34 102 l-25 54 168 217 c1360 1763
1908 2471 1910 2471 2 0 29 -7 60 -16z m-3435 -2153 l614 -545 -20 -45 c-46
-104 -30 -267 37 -368 l32 -49 -309 -334 c-170 -184 -333 -361 -362 -393 l-53
-58 -46 29 c-25 16 -67 35 -92 42 -45 13 -48 16 -80 87 -147 323 -258 781
-308 1278 -29 280 -55 910 -37 903 5 -1 286 -248 624 -547z m2557 -1021 c619
-66 1140 -122 1158 -125 29 -5 32 -9 32 -43 0 -21 6 -61 13 -89 l14 -52 -90
-118 c-297 -388 -631 -723 -918 -919 l-66 -45 -61 20 c-73 25 -177 27 -247 6
-27 -8 -50 -13 -51 -12 0 1 -240 316 -533 700 l-531 699 32 54 33 54 45 -5
c25 -3 551 -59 1170 -125z m-882 -780 l529 -694 -38 -58 c-20 -32 -42 -80 -49
-107 l-12 -50 -71 -21 c-254 -78 -421 -104 -662 -104 -193 0 -297 14 -456 59
-254 72 -498 224 -726 449 l-112 112 6 69 c5 65 0 97 -32 201 -5 17 62 94 370
427 206 224 376 407 378 407 1 0 24 -7 51 -15 66 -20 169 -18 231 4 28 10 53
18 57 17 4 -1 245 -314 536 -696z"/>
<path d="M6025 16494 c-185 -30 -540 -135 -533 -157 3 -7 58 -187 123 -400
l119 -389 35 7 c76 14 365 116 453 160 240 120 343 242 342 405 0 90 -13 137
-56 210 -67 110 -169 160 -343 165 -60 2 -123 1 -140 -1z"/>
<path d="M6515 15333 c-179 -23 -655 -158 -655 -186 0 -6 55 -189 121 -406 67
-218 126 -411 131 -430 9 -32 11 -33 49 -27 21 3 127 35 235 71 397 130 622
272 702 442 23 50 27 71 27 153 0 86 -3 102 -32 162 -74 158 -214 229 -443
226 -58 0 -118 -3 -135 -5z"/>
<path d="M15180 15044 c-81 -17 -229 -90 -295 -145 -168 -139 -258 -331 -258
-549 0 -130 20 -217 75 -330 55 -111 187 -247 293 -302 193 -100 408 -113 607
-38 206 77 384 285 433 505 26 116 17 284 -20 394 -115 339 -479 542 -835 465z"/>
<path d="M13975 13954 c-176 -29 -346 -123 -450 -250 -104 -128 -154 -258
-162 -425 -7 -137 12 -231 75 -359 38 -79 60 -109 131 -181 72 -71 102 -93
181 -131 128 -62 222 -82 359 -75 189 9 337 73 466 202 219 217 276 534 146
810 -90 191 -241 322 -446 385 -69 21 -234 34 -300 24z"/>
<path d="M16525 13954 c-11 -2 -45 -9 -75 -15 -75 -15 -202 -76 -278 -133
-113 -86 -210 -233 -250 -380 -12 -43 -17 -98 -16 -191 0 -113 4 -140 27 -210
38 -113 90 -198 177 -285 87 -87 172 -139 285 -177 71 -24 96 -27 220 -27 126
0 148 2 220 27 114 38 199 91 285 177 87 87 139 172 177 285 24 71 27 95 27
220 0 128 -2 147 -27 220 -34 95 -63 149 -129 232 -82 104 -231 202 -364 237
-58 16 -241 29 -279 20z"/>
<path d="M15122 12780 c-122 -32 -226 -93 -317 -185 -92 -92 -144 -176 -182
-290 -23 -69 -26 -98 -27 -210 -1 -148 17 -224 82 -350 55 -106 191 -238 302
-293 113 -55 200 -75 330 -75 251 0 460 114 600 328 100 155 135 364 91 549
-57 237 -235 433 -466 512 -109 38 -302 44 -413 14z"/>
<path d="M10350 1979 c-463 -57 -812 -413 -859 -878 -44 -428 174 -822 552
-996 250 -116 584 -122 839 -16 153 64 322 197 414 327 60 84 128 231 155 334
33 127 37 324 10 454 -11 54 -24 102 -28 106 -4 5 -81 -27 -169 -70 l-162 -77
9 -44 c37 -194 -32 -438 -166 -586 -269 -298 -756 -259 -979 76 -82 124 -117
242 -117 396 1 323 201 585 498 651 97 21 231 15 322 -16 35 -11 64 -20 65
-18 34 48 166 268 166 276 0 14 -90 47 -182 66 -96 20 -272 27 -368 15z"/>
<path d="M999 1945 c-181 -33 -346 -116 -477 -239 -157 -149 -246 -310 -294
-531 -18 -85 -15 -332 5 -421 30 -134 98 -285 170 -379 149 -195 367 -328 601
-365 108 -18 369 -7 461 18 90 25 148 49 143 61 -9 27 -214 246 -228 244 -8
-1 -42 -7 -75 -13 -134 -22 -262 -4 -385 56 -146 72 -279 240 -324 409 -66
244 1 514 168 679 103 103 209 156 355 176 182 25 372 -40 554 -193 27 -22 52
-36 56 -31 4 5 54 62 110 126 56 65 100 122 97 127 -14 22 -160 133 -220 166
-194 109 -480 152 -717 110z"/>
<path d="M5491 1942 c-52 -26 -74 -63 -79 -130 -3 -46 0 -68 18 -101 49 -98
206 -107 266 -16 56 86 29 206 -58 251 -37 19 -106 18 -147 -4z"/>
<path d="M2290 975 l0 -955 170 0 170 0 0 330 0 330 203 0 203 0 232 -330 233
-330 200 0 c109 0 199 4 199 8 0 5 -112 166 -249 358 -235 328 -249 350 -228
358 12 5 60 27 106 49 148 72 255 202 296 362 20 77 20 253 0 330 -40 157
-144 285 -288 354 -166 80 -263 91 -839 91 l-408 0 0 -955z m1028 601 c75 -35
142 -104 161 -167 20 -67 16 -169 -9 -226 -25 -58 -80 -117 -135 -145 -82 -43
-126 -48 -422 -48 l-283 0 0 311 0 310 313 -3 312 -3 63 -29z"/>
<path d="M3983 1917 c3 -8 172 -269 376 -580 l371 -566 0 -376 0 -375 175 0
175 0 0 380 0 380 198 298 c109 163 208 314 220 334 l23 36 -138 71 c-76 39
-142 71 -148 71 -6 0 -80 -110 -165 -245 -85 -134 -157 -245 -160 -245 -3 0
-122 186 -266 413 l-261 412 -203 3 c-167 2 -201 0 -197 -11z"/>
<path d="M6110 975 l0 -955 170 0 170 0 0 304 0 304 273 5 c237 4 283 7 357
26 245 63 418 215 486 428 25 79 30 256 9 349 -41 186 -152 328 -320 409 -150
72 -264 85 -782 85 l-363 0 0 -955z m876 621 c174 -46 261 -160 252 -331 -7
-131 -68 -225 -181 -279 -80 -37 -153 -46 -389 -46 l-218 0 0 335 0 335 243 0
c173 0 257 -4 293 -14z"/>
<path d="M7790 1770 l0 -160 300 0 300 0 0 -795 0 -795 170 0 170 0 0 795 0
795 300 0 300 0 0 160 0 160 -770 0 -770 0 0 -160z"/>
<path d="M12570 1894 c-486 -94 -790 -529 -731 -1044 50 -426 327 -724 731
-785 120 -19 200 -19 320 0 191 28 406 125 523 233 l27 26 0 348 0 348 -365 0
-365 0 0 -70 0 -70 295 0 295 0 -2 -252 -3 -253 -70 -47 c-73 -49 -182 -97
-288 -126 -87 -24 -317 -23 -407 1 -261 70 -447 262 -522 537 -32 120 -32 347
0 465 62 224 199 396 394 495 114 57 203 74 357 67 190 -8 319 -53 456 -157
l70 -53 42 49 c24 27 43 54 43 60 0 15 -127 102 -207 143 -34 17 -102 43 -150
57 -77 23 -109 27 -253 29 -91 2 -176 1 -190 -1z"/>
<path d="M20225 1886 c-270 -53 -435 -231 -435 -471 0 -270 163 -404 612 -504
229 -51 342 -97 415 -170 51 -52 73 -113 73 -206 0 -160 -111 -282 -300 -331
-79 -20 -284 -15 -375 10 -93 25 -232 98 -322 170 -46 37 -85 66 -87 66 -2 0
-23 -23 -46 -51 l-43 -50 29 -30 c79 -82 277 -191 421 -231 66 -18 106 -22
258 -22 172 -1 184 0 260 27 147 51 262 149 315 269 47 107 47 268 0 375 -40
91 -158 187 -290 238 -38 14 -165 50 -283 80 -300 74 -408 129 -462 236 -71
140 -22 311 113 397 91 59 153 75 292 75 184 1 314 -42 460 -149 l64 -47 43
49 c24 27 43 54 43 61 0 16 -151 116 -225 148 -139 62 -382 90 -530 61z"/>
<path d="M14171 993 c-228 -494 -416 -902 -419 -906 -2 -4 31 -7 74 -5 l77 3
111 245 112 245 523 0 523 0 111 -247 112 -247 78 -1 c70 0 78 2 73 18 -3 9
-190 415 -415 902 l-410 885 -68 3 -68 2 -414 -897z m710 219 l225 -497 -228
-3 c-125 -1 -331 -1 -458 0 l-229 3 227 497 c125 274 229 498 232 498 3 0 107
-224 231 -498z"/>
<path d="M15920 975 l0 -895 65 0 65 0 2 767 3 766 349 -506 c191 -279 352
-507 356 -507 5 0 165 228 357 507 l348 507 3 -767 2 -767 70 0 70 0 0 895 0
896 -71 -3 -72 -3 -350 -517 c-193 -284 -354 -515 -357 -513 -3 2 -163 235
-355 519 l-350 516 -67 0 -68 0 0 -895z"/>
<path d="M18130 975 l0 -895 645 0 645 0 0 65 0 65 -575 0 -575 0 0 355 0 355
510 0 510 0 0 65 0 65 -510 0 -510 0 0 345 0 345 565 0 565 0 0 65 0 65 -635
0 -635 0 0 -895z"/>
<path d="M11057 1746 c-52 -19 -73 -40 -93 -92 -29 -75 -1 -177 58 -213 38
-23 90 -31 138 -20 80 18 120 76 120 172 0 58 -23 104 -70 139 -34 25 -106 31
-153 14z"/>
<path d="M1717 586 c-76 -28 -107 -76 -107 -163 0 -110 49 -165 153 -171 76
-4 122 17 155 74 30 51 28 158 -4 201 -44 59 -129 84 -197 59z"/>
</g>
</svg>
