<?xml version="1.0" standalone="no"?>
<!DOCTYPE svg PUBLIC "-//W3C//DTD SVG 20010904//EN"
 "http://www.w3.org/TR/2001/REC-SVG-20010904/DTD/svg10.dtd">
<svg version="1.0" xmlns="http://www.w3.org/2000/svg"
 width="2307.000000pt" height="1767.000000pt" viewBox="0 0 2307.000000 1767.000000"
 preserveAspectRatio="xMidYMid meet">

<g transform="translate(0.000000,1767.000000) scale(0.100000,-0.100000)"
fill="#000000" stroke="none">
<path d="M6325 17289 c-886 -66 -1649 -322 -2325 -780 -1054 -713 -1792 -1881
-2059 -3259 -112 -579 -136 -1212 -68 -1820 l12 -105 -71 -155 c-105 -230
-252 -578 -347 -820 -46 -117 -90 -217 -98 -221 -8 -5 -40 -21 -73 -36 -78
-37 -156 -115 -197 -198 -59 -120 -51 -281 18 -405 l25 -45 -57 -180 c-191
-605 -388 -1381 -506 -1996 l-34 -176 -38 -22 c-236 -136 -288 -435 -115 -660
l34 -44 -18 -126 c-44 -318 -98 -872 -98 -1019 l-1 -67 -53 -37 c-63 -43 -129
-136 -151 -211 -21 -70 -19 -182 4 -256 26 -85 61 -140 126 -199 l55 -51 0
-183 c1 -897 143 -1727 400 -2327 l61 -143 -25 -61 c-34 -86 -41 -157 -23
-243 38 -177 156 -305 322 -349 33 -8 80 -15 106 -15 l47 0 129 -131 c397
-406 814 -626 1333 -706 158 -24 516 -24 690 1 174 24 380 70 538 121 l134 43
41 -18 c162 -71 357 -32 486 97 58 59 104 139 116 204 6 32 19 44 123 117 403
280 784 659 1141 1134 l100 134 72 12 c95 16 168 52 239 119 119 110 161 259
119 425 -10 37 -8 39 119 215 71 98 174 234 229 303 l99 125 81 11 c207 28
363 172 392 362 6 35 8 76 5 90 -4 24 5 35 81 97 48 39 141 109 208 157 l121
87 91 -87 c293 -283 674 -467 1091 -528 148 -22 425 -21 569 1 732 111 1325
587 1592 1278 39 101 88 286 98 370 5 40 13 60 25 67 26 14 582 34 715 25
l114 -7 11 -71 c104 -638 516 -1194 1094 -1476 290 -142 556 -203 886 -203
474 0 901 151 1270 449 72 59 226 212 283 282 l27 33 97 -78 c54 -44 154 -134
224 -202 262 -253 462 -509 1044 -1337 523 -744 792 -1073 1183 -1446 452
-432 1015 -731 1597 -848 274 -55 627 -70 890 -37 1042 131 1804 829 2085
1909 143 550 210 1129 210 1821 0 382 -55 1118 -121 1606 -323 2418 -896 4451
-1776 6295 -228 480 -433 855 -620 1137 -810 1224 -1991 2048 -3273 2282 -627
114 -1301 87 -1946 -79 -225 -58 -377 -107 -674 -220 -795 -302 -1348 -445
-1960 -509 -374 -40 -701 -42 -1256 -9 l-101 6 -13 -52 c-6 -28 -15 -51 -19
-51 -4 0 -34 57 -68 128 -567 1176 -1622 2101 -2873 2518 -345 116 -671 186
-1060 230 -162 18 -710 27 -885 13z m196 -2357 l106 -347 29 1 c16 0 70 8 121
17 376 67 663 33 867 -104 154 -103 258 -262 317 -487 25 -93 30 -253 10 -332
-21 -88 -84 -209 -149 -286 l-60 -71 132 -6 c262 -11 441 -91 576 -259 157
-194 251 -578 206 -836 -33 -190 -103 -321 -250 -468 -148 -147 -386 -289
-678 -404 -71 -27 -108 -47 -108 -57 0 -8 48 -170 106 -360 58 -190 104 -347
102 -349 -10 -9 -402 -124 -412 -121 -6 3 -58 159 -116 347 -57 188 -109 344
-115 347 -7 2 -86 -18 -176 -45 -134 -40 -164 -52 -167 -68 -1 -10 45 -172
102 -359 58 -186 104 -340 103 -341 -7 -7 -417 -127 -420 -123 -4 4 -187 597
-209 677 -5 18 -15 32 -24 32 -14 0 -409 -118 -749 -223 -97 -30 -111 -32
-117 -18 -7 15 -68 468 -68 502 0 12 30 25 113 49 243 71 274 86 303 143 9 17
16 51 16 76 -1 69 -592 1993 -629 2045 -16 22 -48 50 -73 64 -69 37 -173 28
-360 -32 -80 -25 -150 -46 -156 -46 -10 0 -150 437 -142 445 2 3 762 237 851
262 9 3 17 9 17 15 0 5 -47 162 -105 350 -58 188 -104 346 -102 351 3 9 408
139 414 133 2 -1 50 -157 108 -346 58 -189 107 -345 108 -347 5 -4 346 107
350 115 3 4 -42 160 -99 346 -57 187 -102 341 -99 344 8 8 410 130 415 125 2
-2 52 -160 111 -351z m10140 -52 c523 -41 1017 -178 1489 -414 450 -225 820
-493 1203 -874 424 -420 713 -821 1033 -1432 984 -1878 1656 -4148 1983 -6700
50 -389 97 -986 108 -1355 12 -444 -31 -1004 -108 -1416 -67 -359 -147 -624
-259 -854 -252 -519 -658 -866 -1195 -1020 -198 -57 -300 -69 -565 -70 -156 0
-274 5 -325 13 -486 80 -920 274 -1305 583 -139 111 -383 351 -534 523 -244
279 -420 511 -856 1131 -511 726 -675 937 -940 1209 -159 163 -360 342 -469
418 l-24 17 41 108 c85 229 122 438 122 700 0 342 -62 609 -213 908 -295 587
-858 989 -1513 1080 -167 24 -495 16 -646 -14 -394 -79 -731 -253 -1010 -520
-127 -121 -205 -215 -300 -361 -150 -229 -254 -496 -298 -766 l-11 -71 -367
-7 c-202 -3 -390 -9 -418 -12 l-51 -6 -12 78 c-53 336 -185 644 -391 914 -315
414 -794 693 -1316 766 -179 25 -505 15 -671 -20 -333 -71 -610 -202 -874
-414 -99 -80 -260 -248 -334 -349 l-60 -82 -50 -1 c-27 0 -427 23 -888 50
-461 28 -840 50 -842 50 -1 0 -5 15 -8 34 -9 56 -55 143 -106 198 l-48 53 372
772 372 772 127 -185 c70 -102 132 -184 136 -182 5 2 413 494 906 1093 493
600 900 1094 904 1099 5 4 328 -265 720 -599 391 -334 714 -604 717 -601 4 4
-100 709 -230 1568 -130 859 -235 1564 -233 1566 2 1 371 -7 820 -19 449 -12
819 -19 822 -16 5 5 227 728 478 1557 l62 205 274 -3 c951 -11 1720 141 2820
556 430 162 660 230 970 286 118 22 341 49 480 59 109 8 387 6 511 -3z
m-11276 -4946 c473 -685 861 -1251 863 -1259 2 -8 -173 -380 -388 -827 l-391
-813 -99 0 -98 0 -742 1662 -742 1662 363 410 c200 226 365 411 369 410 3 0
392 -560 865 -1245z m-3068 -24 l212 -669 -216 -713 c-119 -392 -217 -714
-217 -715 -1 -2 -13 -4 -26 -5 -24 -3 -26 7 -210 747 l-186 750 46 28 c206
130 269 373 153 588 l-25 47 122 306 c68 168 125 306 129 306 3 0 101 -301
218 -670z m2062 -1322 c396 -889 721 -1622 721 -1627 0 -5 -13 -19 -30 -31
-16 -11 -48 -49 -71 -84 l-41 -63 -62 13 c-33 7 -558 117 -1166 244 -608 127
-1112 233 -1120 235 -12 4 -14 20 -12 80 8 178 -89 341 -248 418 l-66 32 196
647 196 647 489 555 c270 305 491 553 491 553 1 -1 326 -730 723 -1619z
m-2541 -917 c-22 -25 -55 -75 -72 -111 -28 -59 -31 -74 -31 -165 0 -55 4 -116
8 -135 l8 -35 -321 -166 c-311 -162 -321 -166 -332 -145 -6 11 -24 37 -39 57
l-29 37 55 268 c118 583 280 1226 431 1709 l28 90 168 -679 168 -678 -42 -47z
m1912 -821 l1175 -246 7 -58 c8 -59 41 -145 77 -195 l20 -28 -1125 -1459
c-620 -803 -1130 -1463 -1135 -1468 -6 -6 -26 -2 -53 11 -24 12 -59 25 -77 28
l-34 6 -197 1747 c-108 961 -195 1748 -193 1750 2 2 22 8 46 13 68 16 146 57
202 109 45 41 56 47 82 42 17 -3 559 -116 1205 -252z m-1856 185 c23 -19 64
-44 89 -55 27 -12 47 -28 47 -37 0 -8 88 -794 195 -1746 107 -952 195 -1739
195 -1749 0 -10 -6 -18 -14 -18 -7 0 -41 -14 -75 -32 l-61 -31 -23 20 c-12 11
-301 267 -642 568 -341 301 -635 562 -653 580 l-34 32 21 68 c48 156 11 320
-101 440 -34 38 -38 47 -38 98 0 134 46 616 91 957 l22 165 55 35 c105 67 179
189 191 313 l6 71 340 177 c187 98 341 178 343 179 2 0 23 -16 46 -35z m7648
-104 c291 -63 551 -205 763 -416 212 -212 350 -467 417 -772 32 -143 32 -443
0 -590 -117 -541 -509 -979 -1022 -1141 -181 -57 -247 -67 -460 -67 -214 0
-284 10 -465 67 -523 165 -932 638 -1026 1186 -33 193 -25 415 23 612 119 497
515 920 1008 1078 83 26 183 49 295 66 77 11 373 -3 467 -23z m4820 0 c595
-128 1050 -584 1180 -1184 30 -138 32 -435 5 -572 -63 -308 -203 -572 -422
-790 -198 -199 -423 -328 -690 -398 -374 -97 -778 -45 -1110 144 -423 240
-702 654 -766 1134 -26 198 0 456 68 660 168 512 628 914 1153 1009 136 24
137 24 315 21 123 -3 197 -9 267 -24z m-7658 -496 c411 -24 750 -46 752 -48 2
-2 -13 -42 -35 -89 -251 -543 -248 -1170 8 -1713 41 -88 49 -110 37 -117 -32
-18 -259 -188 -332 -248 l-79 -65 -105 -1 c-58 0 -117 -4 -131 -8 -26 -7 -32
4 -599 1058 l-572 1066 45 49 c42 48 62 81 86 145 l11 28 83 -7 c45 -3 419
-26 831 -50z m-1346 -265 c37 0 81 4 97 8 l30 9 573 -1067 573 -1068 -49 -65
c-77 -101 -107 -223 -83 -336 l11 -52 -105 -132 c-58 -73 -166 -216 -241 -318
l-135 -186 -71 -12 c-121 -20 -222 -80 -298 -178 l-25 -31 -1330 143 c-731 79
-1331 144 -1332 145 -1 0 -7 26 -13 58 -7 31 -24 82 -38 113 l-27 56 1139
1475 1138 1475 60 -18 c33 -11 90 -19 126 -19z m-3846 -2378 l635 -563 -25
-62 c-49 -120 -30 -276 48 -397 l31 -49 -396 -429 -396 -430 -55 33 c-30 18
-76 38 -102 45 l-48 11 -42 97 c-185 430 -297 931 -347 1557 -16 194 -36 802
-28 818 3 4 24 -10 47 -30 24 -21 329 -291 678 -601z m2773 -1087 c694 -74
1269 -135 1278 -135 13 0 17 -9 17 -42 0 -24 7 -70 14 -102 l14 -60 -103 -135
c-333 -439 -678 -782 -1017 -1015 l-56 -38 -59 23 c-72 28 -223 32 -289 7
l-41 -16 -586 770 -586 769 26 37 c14 20 29 48 34 61 8 21 14 23 52 17 23 -3
609 -67 1302 -141z m-971 -857 l576 -758 -39 -59 c-21 -33 -45 -86 -55 -119
l-16 -60 -108 -31 c-401 -116 -732 -138 -1067 -70 -344 70 -672 261 -955 555
l-85 89 -1 105 c0 83 -5 116 -22 159 l-21 54 107 116 c60 64 245 265 413 446
170 185 311 329 319 328 8 -1 44 -9 80 -18 75 -18 159 -13 235 14 28 10 53 16
56 12 4 -3 266 -347 583 -763z"/>
<path d="M6559 14005 c-47 -8 -124 -23 -170 -35 -120 -29 -367 -109 -374 -120
-5 -7 251 -858 261 -869 15 -16 382 107 521 174 224 107 336 212 377 354 20
69 20 121 1 196 -23 86 -50 138 -101 191 -105 107 -282 145 -515 109z"/>
<path d="M7165 12743 c-131 -12 -344 -63 -594 -143 -150 -48 -162 -54 -157
-74 13 -52 286 -940 291 -944 8 -8 372 107 505 159 292 116 482 254 557 407
39 79 45 211 13 306 -74 223 -279 320 -615 289z"/>
<path d="M16658 12430 c-230 -39 -449 -203 -558 -419 -56 -110 -71 -173 -77
-321 -5 -117 -2 -148 16 -220 112 -448 581 -702 1018 -551 301 104 504 374
520 694 12 228 -59 424 -210 584 -176 187 -449 276 -709 233z"/>
<path d="M15244 11215 c-299 -65 -536 -306 -598 -607 -71 -343 101 -702 408
-854 139 -68 232 -88 391 -82 107 4 144 10 210 32 332 113 537 398 537 746 -1
309 -163 570 -439 705 -143 70 -351 94 -509 60z"/>
<path d="M18006 11209 c-162 -40 -315 -138 -418 -267 -118 -149 -170 -296
-171 -487 0 -145 17 -223 78 -350 132 -273 393 -435 700 -435 223 0 419 82
566 236 137 146 203 296 215 494 16 235 -63 440 -230 605 -116 114 -234 179
-384 210 -96 21 -260 18 -356 -6z"/>
<path d="M16644 9959 c-185 -28 -369 -133 -490 -279 -54 -66 -127 -211 -151
-300 -13 -48 -18 -102 -17 -205 0 -131 2 -146 33 -235 35 -102 95 -207 161
-282 87 -100 249 -197 390 -235 89 -24 300 -24 389 1 285 78 500 299 567 584
22 92 22 267 -1 357 -86 345 -374 582 -729 599 -50 3 -118 1 -152 -5z"/>
</g>
</svg>
