<?xml version="1.0" standalone="no"?>
<!DOCTYPE svg PUBLIC "-//W3C//DTD SVG 20010904//EN"
 "http://www.w3.org/TR/2001/REC-SVG-20010904/DTD/svg10.dtd">
<svg version="1.0" xmlns="http://www.w3.org/2000/svg"
 width="3528.000000pt" height="333.000000pt" viewBox="0 0 3528.000000 333.000000"
 preserveAspectRatio="xMidYMid meet">

<g transform="translate(0.000000,333.000000) scale(0.100000,-0.100000)"
fill="#000000" stroke="none">
<path d="M17119 3315 c-354 -56 -671 -216 -919 -465 -262 -262 -411 -559 -471
-935 -17 -103 -17 -407 0 -510 74 -471 325 -876 697 -1125 185 -124 368 -200
605 -252 93 -20 131 -23 364 -23 233 0 271 3 365 23 507 111 928 429 1145 867
139 279 194 537 182 845 -6 150 -23 265 -59 385 -11 39 -21 71 -23 73 -1 1
-123 -56 -271 -127 -259 -125 -269 -131 -268 -158 0 -15 6 -77 13 -138 32
-290 -54 -601 -231 -836 -159 -211 -388 -351 -658 -400 -95 -17 -300 -14 -395
6 -107 23 -154 39 -262 91 -282 135 -490 397 -580 731 -25 91 -27 113 -27 303
0 191 2 212 26 300 96 344 284 582 573 725 179 89 371 123 572 104 94 -9 249
-46 295 -70 11 -6 24 -7 29 -2 14 14 289 454 289 463 0 27 -291 110 -450 130
-116 14 -436 11 -541 -5z"/>
<path d="M1470 3315 c-8 -2 -55 -9 -105 -15 -329 -45 -668 -220 -906 -467
-228 -238 -366 -507 -436 -851 -14 -70 -18 -135 -18 -332 1 -217 3 -257 23
-350 71 -325 236 -634 454 -847 212 -208 495 -358 800 -425 120 -26 453 -36
608 -18 174 20 470 105 470 135 -1 19 -363 420 -379 419 -9 -1 -52 -9 -96 -19
-106 -23 -341 -24 -441 -2 -438 98 -748 438 -830 911 -24 136 -15 387 19 517
87 332 297 592 592 730 151 71 213 83 430 83 167 0 200 -2 275 -22 163 -44
375 -163 537 -301 40 -33 76 -61 81 -61 14 0 357 402 357 418 0 22 -149 149
-265 226 -287 192 -590 277 -985 275 -93 -1 -177 -3 -185 -4z"/>
<path d="M8995 3271 c-118 -29 -189 -132 -189 -271 0 -89 16 -131 74 -194 49
-53 108 -76 194 -76 111 0 202 63 241 164 27 70 18 198 -18 259 -59 100 -180
147 -302 118z"/>
<path d="M3510 1611 l0 -1611 285 0 285 0 0 555 0 555 353 0 352 -1 390 -554
390 -554 344 -1 c273 0 341 3 333 13 -27 34 -845 1182 -848 1192 -3 6 16 16
43 23 64 17 218 91 290 139 238 157 386 414 412 712 51 593 -266 996 -874
1113 -105 20 -146 21 -932 25 l-823 4 0 -1610z m1639 1060 c164 -42 298 -136
355 -249 74 -147 74 -366 -2 -506 -38 -70 -125 -156 -202 -198 -153 -85 -261
-97 -832 -98 l-388 0 0 541 0 540 493 -4 c466 -3 496 -5 576 -26z"/>
<path d="M6389 3202 c5 -10 293 -451 640 -981 l631 -963 0 -629 0 -629 290 0
290 0 0 640 0 639 371 561 c240 364 368 565 362 571 -6 6 -113 64 -239 129
-175 91 -232 116 -240 107 -6 -7 -130 -198 -274 -425 -210 -331 -265 -411
-275 -400 -7 7 -209 325 -450 706 l-437 692 -339 0 c-325 0 -339 -1 -330 -18z"/>
<path d="M10000 1611 l0 -1611 285 0 285 0 0 515 0 515 388 0 c497 0 629 17
857 107 473 187 723 597 675 1108 -18 195 -68 347 -162 491 -156 237 -409 392
-748 457 -98 19 -155 20 -842 24 l-738 4 0 -1610z m1465 1061 c297 -81 445
-261 445 -542 0 -272 -153 -468 -430 -551 -72 -22 -94 -23 -492 -27 l-418 -3
0 576 0 577 408 -4 c379 -4 413 -6 487 -26z"/>
<path d="M12830 2950 l0 -270 510 0 510 0 0 -1340 0 -1340 290 0 290 0 0 1340
0 1340 510 0 510 0 0 270 0 270 -1310 0 -1310 0 0 -270z"/>
<path d="M21035 3123 c-198 -23 -376 -76 -534 -158 -553 -288 -869 -920 -800
-1596 39 -384 182 -702 429 -950 201 -202 433 -325 734 -391 89 -20 130 -22
346 -22 217 0 257 2 350 22 289 63 586 203 791 374 l59 49 0 584 0 585 -620 0
-620 0 0 -105 0 -105 505 0 505 0 0 -431 c0 -399 -1 -433 -17 -446 -168 -133
-429 -253 -647 -298 -364 -74 -745 -9 -1021 174 -325 215 -518 572 -555 1028
-35 432 107 841 390 1123 243 243 515 354 865 353 348 -1 622 -96 886 -309
l67 -53 63 72 c34 40 69 80 77 89 13 16 12 20 -13 40 -273 221 -550 336 -881
368 -103 9 -292 11 -359 3z"/>
<path d="M33932 3094 c-381 -64 -666 -307 -737 -628 -26 -114 -17 -301 19
-412 85 -264 325 -437 770 -554 61 -16 185 -45 276 -65 580 -128 790 -293 790
-620 0 -219 -121 -406 -331 -509 -135 -66 -225 -87 -399 -93 -400 -14 -747
117 -1057 400 -45 42 -56 48 -67 36 -80 -90 -136 -159 -136 -167 0 -15 196
-168 295 -229 174 -109 351 -180 555 -225 93 -20 133 -22 345 -23 220 0 248 2
335 24 358 90 594 300 670 596 28 108 28 301 0 409 -51 199 -186 348 -415 461
-142 69 -309 122 -570 180 -602 134 -816 275 -857 564 -41 296 148 542 487
633 117 31 376 31 524 -1 210 -45 445 -161 583 -289 14 -13 31 -23 36 -21 14
6 142 166 142 179 0 14 -138 116 -236 172 -233 137 -485 199 -797 197 -78 -1
-179 -7 -225 -15z"/>
<path d="M23655 1535 c-385 -833 -701 -1520 -703 -1525 -2 -6 43 -10 120 -10
l123 1 190 419 190 420 886 0 887 0 187 -413 c103 -226 190 -416 194 -420 4
-4 64 -6 133 -5 l126 3 -703 1520 -703 1520 -113 3 -114 2 -700 -1515z m1211
360 l381 -840 -780 -3 c-429 -1 -782 0 -785 3 -3 2 172 392 389 866 345 756
395 858 404 838 5 -13 181 -402 391 -864z"/>
<path d="M26620 1515 l0 -1515 110 0 110 0 2 1300 3 1299 590 -859 c339 -494
596 -860 605 -860 9 0 264 363 605 859 l590 859 3 -1299 2 -1299 115 0 115 0
0 1515 0 1515 -108 0 -107 0 -604 -890 c-332 -490 -605 -890 -606 -890 -2 0
-274 400 -606 890 l-604 890 -107 0 -108 0 0 -1515z"/>
<path d="M30360 1515 l0 -1515 1090 0 1090 0 0 105 0 105 -975 0 -975 0 0 600
0 600 870 0 870 0 0 110 0 110 -870 0 -870 0 0 590 0 590 965 0 965 0 0 110 0
110 -1080 0 -1080 0 0 -1515z"/>
<path d="M18429 2939 c-148 -22 -238 -145 -227 -309 9 -119 80 -215 182 -245
137 -41 278 13 338 129 29 56 36 185 14 253 -42 125 -163 193 -307 172z"/>
<path d="M2560 997 c-127 -36 -200 -139 -200 -281 0 -159 81 -261 229 -288
120 -23 238 30 294 131 24 43 31 69 35 130 5 91 -8 143 -51 207 -59 89 -194
133 -307 101z"/>
</g>
</svg>
